HIERARCHY
ROOT hip
{
  OFFSET 0 0 0
  CHANNELS 6 Xposition Yposition Zposition Zrotation Yrotation Xrotation
  JOINT abdomen
  {
    OFFSET 0 20.6881 -0.73152
    CHANNELS 3 Zrotation Xrotation Yrotation
    JOINT chest
    {
      OFFSET 0 11.7043 -0.48768
      CHANNELS 3 Zrotation Xrotation Yrotation
      JOINT neck
      {
        OFFSET 0 22.1894 -2.19456
        CHANNELS 3 Zrotation Xrotation Yrotation
        JOINT head
        {
          OFFSET -0.24384 7.07133 1.2192
          CHANNELS 3 Zrotation Xrotation Yrotation
          JOINT leftEye
          {
            OFFSET 4.14528 8.04674 8.04672
            CHANNELS 3 Zrotation Xrotation Yrotation
            End Site
            {
              OFFSET 1 0 0
            }
          }
          JOINT rightEye
          {
            OFFSET -3.6576 8.04674 8.04672
            CHANNELS 3 Zrotation Xrotation Yrotation
            End Site
            {
              OFFSET 1 0 0
            }
          }
        }
      }
      JOINT rCollar
      {
        OFFSET -2.68224 19.2634 -4.8768
        CHANNELS 3 Zrotation Xrotation Yrotation
        JOINT rShldr
        {
          OFFSET -8.77824 -1.95073 1.46304
          CHANNELS 3 Zrotation Xrotation Yrotation
          JOINT rForeArm
          {
            OFFSET -28.1742 -1.7115 0.48768
            CHANNELS 3 Zrotation Xrotation Yrotation
            JOINT rHand
            {
              OFFSET -22.5879 0.773209 7.07136
              CHANNELS 3 Zrotation Xrotation Yrotation
              JOINT rThumb1
              {
                OFFSET -1.2192 -0.487915 3.41376
                CHANNELS 3 Zrotation Xrotation Yrotation
                JOINT rThumb2
                {
                  OFFSET -3.37035 -0.52449 3.41376
                  CHANNELS 3 Zrotation Xrotation Yrotation
                  End Site
                  {
                    OFFSET -1.78271 -1.18214 1.43049
                  }
                }
              }
              JOINT rIndex1
              {
                OFFSET -7.75947 0.938293 5.60832
                CHANNELS 3 Zrotation Xrotation Yrotation
                JOINT rIndex2
                {
                  OFFSET -2.54057 -0.884171 1.56538
                  CHANNELS 3 Zrotation Xrotation Yrotation
                  End Site
                  {
                    OFFSET -1.62519 -0.234802 1.16502
                  }
                }
              }
              JOINT rMid1
              {
                OFFSET -8.24714 1.18213 3.41376
                CHANNELS 3 Zrotation Xrotation Yrotation
                JOINT rMid2
                {
                  OFFSET -3.10165 -0.590103 1.0647
                  CHANNELS 3 Zrotation Xrotation Yrotation
                  End Site
                  {
                    OFFSET -2.48547 -0.328903 0.83742
                  }
                }
              }
              JOINT rRing1
              {
                OFFSET -8.82822 0.546677 1.51678
                CHANNELS 3 Zrotation Xrotation Yrotation
                JOINT rRing2
                {
                  OFFSET -2.60934 -0.819778 -0.0198488
                  CHANNELS 3 Zrotation Xrotation Yrotation
                  End Site
                  {
                    OFFSET -2.33842 -0.294052 0.168128
                  }
                }
              }
              JOINT rPinky1
              {
                OFFSET -8.27202 -0.0477905 -0.4584
                CHANNELS 3 Zrotation Xrotation Yrotation
                JOINT rPinky2
                {
                  OFFSET -1.82734 -0.647385 -0.700984
                  CHANNELS 3 Zrotation Xrotation Yrotation
                  End Site
                  {
                    OFFSET -1.69225 -0.51767 -0.607171
                  }
                }
              }
            }
          }
        }
      }
      JOINT lCollar
      {
        OFFSET 2.68224 19.2634 -4.8768
        CHANNELS 3 Zrotation Xrotation Yrotation
        JOINT lShldr
        {
          OFFSET 8.77824 -1.95073 1.46304
          CHANNELS 3 Zrotation Xrotation Yrotation
          JOINT lForeArm
          {
            OFFSET 28.1742 -1.7115 0.48768
            CHANNELS 3 Zrotation Xrotation Yrotation
            JOINT lHand
            {
              OFFSET 22.5879 0.773209 7.07136
              CHANNELS 3 Zrotation Xrotation Yrotation
              JOINT lThumb1
              {
                OFFSET 1.2192 -0.487915 3.41376
                CHANNELS 3 Zrotation Xrotation Yrotation
                JOINT lThumb2
                {
                  OFFSET 3.37035 -0.52449 3.41376
                  CHANNELS 3 Zrotation Xrotation Yrotation
                  End Site
                  {
                    OFFSET 1.78271 -1.18214 1.43049
                  }
                }
              }
              JOINT lIndex1
              {
                OFFSET 7.75947 0.938293 5.60832
                CHANNELS 3 Zrotation Xrotation Yrotation
                JOINT lIndex2
                {
                  OFFSET 2.54057 -0.884171 1.56538
                  CHANNELS 3 Zrotation Xrotation Yrotation
                  End Site
                  {
                    OFFSET 1.62519 -0.234802 1.16502
                  }
                }
              }
              JOINT lMid1
              {
                OFFSET 8.24714 1.18213 3.41376
                CHANNELS 3 Zrotation Xrotation Yrotation
                JOINT lMid2
                {
                  OFFSET 3.10165 -0.590103 1.0647
                  CHANNELS 3 Zrotation Xrotation Yrotation
                  End Site
                  {
                    OFFSET 2.48547 -0.328903 0.83742
                  }
                }
              }
              JOINT lRing1
              {
                OFFSET 8.82822 0.546677 1.51678
                CHANNELS 3 Zrotation Xrotation Yrotation
                JOINT lRing2
                {
                  OFFSET 2.60934 -0.819778 -0.0198488
                  CHANNELS 3 Zrotation Xrotation Yrotation
                  End Site
                  {
                    OFFSET 2.33842 -0.294052 0.168128
                  }
                }
              }
              JOINT lPinky1
              {
                OFFSET 8.27202 -0.0477905 -0.4584
                CHANNELS 3 Zrotation Xrotation Yrotation
                JOINT lPinky2
                {
                  OFFSET 1.82734 -0.647385 -0.700984
                  CHANNELS 3 Zrotation Xrotation Yrotation
                  End Site
                  {
                    OFFSET 1.69225 -0.51767 -0.607171
                  }
                }
              }
            }
          }
        }
      }
    }
  }
  JOINT rButtock
  {
    OFFSET -8.77824 4.35084 1.2192
    CHANNELS 3 Zrotation Xrotation Yrotation
    JOINT rThigh
    {
      OFFSET 0 -1.70687 -2.19456
      CHANNELS 3 Zrotation Xrotation Yrotation
      JOINT rShin
      {
        OFFSET 0 -36.8199 0.73152
        CHANNELS 3 Zrotation Xrotation Yrotation
        JOINT rFoot
        {
          OFFSET 0.73152 -45.1104 -5.12064
          CHANNELS 3 Zrotation Xrotation Yrotation
          End Site
          {
            OFFSET -1.1221 -3.69964 12.103
          }
        }
      }
    }
  }
  JOINT lButtock
  {
    OFFSET 8.77824 4.35084 1.2192
    CHANNELS 3 Zrotation Xrotation Yrotation
    JOINT lThigh
    {
      OFFSET 0 -1.70687 -2.19456
      CHANNELS 3 Zrotation Xrotation Yrotation
      JOINT lShin
      {
        OFFSET 0 -36.8199 0.73152
        CHANNELS 3 Zrotation Xrotation Yrotation
        JOINT lFoot
        {
          OFFSET -0.73152 -45.1104 -5.12064
          CHANNELS 3 Zrotation Xrotation Yrotation
          End Site
          {
            OFFSET 1.1221 -3.69964 12.103
          }
        }
      }
    }
  }
}
MOTION
Frames:	8
Frame Time:	0.00833333
28.1142 68.9139 191.4818 1.081825 24.475688 5.901886 -8.792529 6.369481 -107.269928 4.090382 6.957507 92.783756 4.915933 38.455994 135.801891 -26.563327 29.737537 167.005383 -0.147541 -0.00082 0.637196 0.328688 -0.006007 -2.093904 -0.116309 0.278362 0.142467 66.982592 9.879601 -6.339215 7.776235 0.847375 38.701096 -9.537867 29.18637 1.461731 -6.079888 5.525731 0.49969 -121.276253 -17.628686 107.792404 158.070711 -69.49356 102.223538 -169.895551 -35.393144 116.776364 -158.751927 -0.018551 142.608647 -164.522421 -6.866814 143.67407 -147.205437 0.347898 -179.867138 11.064332 52.798825 -3.938144 0.683445 -0.944201 -0.172682 -6.781387 -17.805583 -6.125333 159.073127 -47.863326 -171.163613 49.896185 3.74837 30.827476 -34.214149 -15.070472 60.221441 -172.605251 0.188279 -147.062177 95.394933 38.525252 -54.889485 157.959052 -32.491038 -81.26235 160.554188 -33.044099 -122.114141 62.420457 55.303066 -47.858145 21.87125 41.007478 -17.226753 175.344706 -38.85563 -144.521959 146.720298 -0.16108 -179.896687 154.377189 63.116414 -168.312703 126.315537 -27.978987 123.518271 159.471062 55.639062 149.773897 -175.245226 75.490053 -4.188757 161.309818 7.376565 90.419471 84.997473 0.961152 82.517949 -68.730616 0.839138 -164.129091 -0.000714 -0.071006 -0.576372 6.549756 4.724569 151.07339 21.030208 -34.839704 -118.001338 93.360747 -1.081307 6.0908
28.1507 68.8766 191.2275 1.033063 24.3804 5.883673 -8.595355 7.051794 -88.977765 6.779298 5.25625 74.100116 -14.623542 27.238046 -44.987995 30.813129 -7.28853 -12.064071 -0.119776 -0.000843 0.80608 0.239569 -0.003913 -1.871354 -155.697767 -3.519877 161.772685 129.791374 -20.976289 162.847134 -1.93593 -19.648183 36.535714 -5.53556 17.749242 0.315364 -67.087704 38.379129 34.180356 4.546392 -13.916349 23.623077 -1.818958 0.057725 0.518615 -18.450932 36.345581 14.645473 -153.496328 13.864244 139.46719 80.102703 -78.267385 52.155624 -147.17939 1.200291 179.760078 10.388467 29.656817 -6.293155 1.154737 0.082707 -0.001256 -131.154644 -29.952762 -127.528268 83.11048 68.852758 -85.909114 -83.292595 -11.190784 -78.221843 110.573199 43.344965 -66.515992 -84.6344 -66.988563 -71.47359 -178.739077 -19.140464 -89.859179 -167.254175 -31.97852 -102.582828 -12.091935 -21.84327 4.620735 35.36335 44.810701 -25.778429 152.003601 16.371833 -137.986243 170.506826 -30.969643 -144.721998 75.228381 72.071141 -91.117289 146.693145 61.67121 -158.895337 -38.77548 85.873418 0.796796 26.149536 -41.52974 27.690558 -1.677455 0.173517 -0.839822 -33.228012 -62.176426 -30.386836 -17.982515 73.547543 -37.319016 94.20589 47.292444 -3.352339 -3.090281 -0.017132 -3.084877 11.00243 6.807369 -58.631234 -43.787841 9.855249 -27.856857 80.357043 -20.842075 144.322422
28.1858 68.8311 190.98010000000002 1.031238 24.430565 5.91868 -8.924538 5.643739 -122.056773 1.433049 7.753963 106.95667 -13.652837 26.185956 -37.474249 28.409808 -11.028728 -19.187043 -0.103413 -0.000884 0.979977 0.126314 -0.00176 -1.596834 -154.225043 -75.692708 -178.573413 81.738072 51.91322 -100.989202 -174.836459 -24.158592 107.336153 166.524337 -27.25233 142.146663 -78.14306 39.447655 42.105456 -148.602494 -31.240912 81.276472 -51.724152 40.260025 39.853123 -159.754764 -8.130474 111.314982 -145.672449 29.871809 133.390851 2.321095 0.74051 0.139421 -74.778345 -72.740582 -89.920804 -70.01941 -80.903652 -96.539753 35.729281 82.961915 3.605783 62.632816 81.421032 -27.380934 -2.763969 -26.372015 5.790329 93.631714 -14.955722 150.366093 179.237694 6.71288 144.497585 8.790615 39.587631 -2.632713 162.827328 -0.385518 -90.247999 134.554949 4.542739 -67.126328 14.637006 18.952432 -9.976769 177.450215 -34.197217 -109.567771 -37.908267 -72.447224 -12.15485 -2.676412 0.750417 -1.340884 147.097669 0.795102 -179.941636 157.23868 0.332951 -179.101389 141.48225 -2.713338 137.091686 1.004763 -7.932825 3.67879 -0.523674 0.036858 -0.0 -35.588244 -61.547573 -32.505852 28.675887 76.328633 76.885626 -14.5531 40.790672 -77.320114 -0.002343 -0.190673 -0.704096 8.130375 6.602546 -51.17144 -40.087745 15.936552 -18.239974 -143.399505 61.646719 -119.181971
28.220200000000002 68.8651 190.7681 1.063109 24.465787 6.009513 -11.074303 9.146127 1.320867 7.873728 -9.039439 -15.705171 -16.017603 35.978957 -96.124875 34.908431 20.772763 32.103414 -0.095041 -0.000998 1.202983 -0.002331 2.8e-05 -1.360629 -158.92827 -30.048885 166.803344 139.104477 -2.285865 -174.249093 160.322883 7.101338 112.151768 176.836535 2.225512 145.585811 -166.891787 -4.034957 90.57641 -178.028334 -13.807916 91.57964 -146.744715 -6.067143 118.220692 -3.317257 19.764831 -2.50043 -167.280079 -27.895134 145.93797 28.626527 -60.365844 6.232579 -74.613393 -72.395304 -89.931361 -150.35811 0.510288 177.470447 32.201158 79.634607 6.020905 -26.856698 -38.099751 -26.597459 158.764441 -48.582692 -171.32852 -177.650565 -44.118182 128.359127 99.054083 -87.926931 68.073488 6.235375 33.659625 -1.918753 2.923042 3.003925 0.449371 98.446219 14.322176 -88.517859 46.492584 39.201005 -36.708707 -95.481566 -65.517342 -44.849917 0.218816 0.594225 -0.595732 -10.3369 -25.112477 1.858679 73.656266 72.58411 -89.987558 157.500241 26.900972 -171.387246 86.906013 -50.717876 83.787941 137.153076 -12.866173 134.047166 137.875734 72.6146 31.230264 176.317275 10.786226 18.979492 72.559286 57.912229 56.623211 83.775308 76.164097 -168.875698 177.240993 76.01955 2.843093 -142.85236 78.191942 142.260829 9.65634 -39.403876 150.96518 33.351981 -5.498703 73.017837
28.2489 68.9706 190.5994 1.097816 24.355333 6.061473 -12.646743 8.499301 39.263581 2.209171 -12.449744 -54.20565 4.710892 26.536611 63.560904 -26.033995 -8.582813 -129.432764 -0.051764 -0.000631 1.397659 -0.000125 1e-06 -1.234314 -158.163134 -21.55704 165.274119 137.254421 -0.647855 178.364978 -79.145164 35.672908 55.781792 37.848705 -61.299883 25.775493 -171.886563 -9.118467 90.777073 56.707855 -69.641096 44.242715 -1.532699 0.186901 0.235211 -16.675507 34.632331 12.481663 -83.110003 61.534341 74.360432 179.61301 -48.693124 139.866634 -146.691675 -0.974196 -178.566461 12.580061 52.603846 -4.539865 -144.545023 13.959145 -141.133975 -41.468973 -48.220453 -44.62575 150.266168 22.256978 -155.552101 68.812877 7.642012 -34.884137 -158.954994 32.923104 135.942581 23.841046 63.537127 -12.269107 -2.379821 -2.44445 1.242405 0.898504 -2.053979 2.274967 -158.236659 -69.700954 -100.64544 161.720494 -20.058673 -114.708872 165.031502 -19.680146 -143.946726 163.182917 -5.669345 -142.223428 75.744316 -72.283458 91.860161 151.527029 -0.219648 -176.850999 -11.602866 44.55416 -11.174203 147.607178 12.931203 144.363778 -0.465477 -0.272536 0.0 -38.39154 -61.941566 68.145704 80.725592 -6.317411 166.035955 63.488503 -45.752718 158.962003 -122.986954 69.30997 -40.548604 134.463253 77.781236 -77.211696 -43.000476 -9.197366 173.311529 116.549259 -38.846875 21.170243
28.272000000000002 69.0091 190.4609 1.100714 24.129378 6.019427 -13.283141 7.787827 60.14499 -1.49485 -12.602731 -75.657377 5.257293 26.925934 66.520076 -26.746557 -6.968693 -132.380256 0.101726 0.001375 1.549167 0.122347 -0.001318 -1.234415 -4.110797 17.89445 4.6289 69.083174 -1.289009 8.31999 87.750929 -32.616602 68.329147 -146.936361 64.347162 124.427796 116.476826 -50.703292 57.692825 -171.890439 -83.30646 152.130127 -20.001266 23.974259 13.059988 -167.96207 -21.770663 111.446443 5.23404 -18.446485 -2.846067 -82.860956 65.293547 75.354268 -146.353703 -6.286498 -176.348848 11.717921 13.669635 -9.241155 -132.440105 -14.65295 -130.355303 -22.749373 -40.937362 -26.94249 37.483817 -85.430156 58.805258 77.295561 -26.248563 86.061117 172.055438 2.956366 149.258101 5.769986 33.448393 -2.078807 93.880842 38.701454 -53.623423 61.772658 -1.201323 -49.471368 0.884075 1.820379 -1.378922 178.077508 -34.057862 -108.997306 37.081626 51.085715 -30.887589 34.286166 56.236441 -29.548009 145.82204 -2.406843 178.340848 155.331359 1.315718 179.4985 146.913086 15.125962 143.082303 -1.442014 0.48526 1.919528 146.150044 73.945798 25.518652 174.861034 8.946429 -129.012592 -73.810019 -41.111101 27.505851 24.721627 -69.860259 118.127029 0.344803 -0.13775 -0.4425 5.483739 5.885083 76.878029 44.55836 5.005974 4.689524 -120.681272 26.142257 0.891652
28.2868 68.9283 190.3354 1.064362 24.014718 5.965871 -11.225496 8.96084 -0.0 8.248229 -8.723676 -14.873839 -11.456989 24.646462 -26.524339 23.438822 -15.4344 -31.04577 0.372283 0.005361 1.650111 0.164181 -0.001953 -1.363308 -6.284438 25.581298 7.081332 96.630993 -61.246329 27.415369 17.285144 55.304932 25.549028 -11.35553 33.201472 2.548992 -179.081476 -16.327595 90.274563 -78.150694 9.951131 23.880127 5.473195 -10.896314 -3.47593 -157.725454 -8.563462 112.042457 -0.083388 -1.680431 -0.43375 -2.710578 18.566915 2.502359 -146.575604 3.343468 -179.00666 -143.21843 -49.844001 -163.87513 -148.732477 26.187032 -143.971684 -82.875484 -50.713186 -83.711439 131.468906 54.212009 -135.230967 -78.127148 -23.113808 -101.975226 -63.37584 -53.989786 -79.834766 48.651897 75.395624 -34.357333 -179.575784 -17.921942 -89.845087 -179.6085 -18.637911 -100.074597 16.097448 20.943321 -11.604788 -40.555986 -43.633765 -3.564122 168.223204 -27.803221 -144.242655 113.986775 58.416357 -103.467695 32.419529 -66.077856 46.363494 -14.549433 0.564927 3.178556 0.431987 0.273769 -0.562498 153.039493 35.872622 148.625869 -0.145102 -0.163974 0.186145 -34.806751 -61.534058 -38.336952 -7.871494 78.786786 120.983174 -156.72397 -16.683371 113.087412 -0.000336 -0.025144 -0.765209 6.101127 4.825718 128.203883 32.918142 -21.776892 -112.896392 67.721236 8.461044 20.412943
28.300399999999996 68.82430000000001 190.215 1.012058 23.904483 5.911704 -11.322402 9.04986 1.332072 8.194243 -9.010501 -16.257581 -15.837422 34.617066 -87.485123 35.293536 15.804995 23.767077 0.716572 0.011198 1.790528 -0.111399 0.001515 -1.558584 -159.312428 -47.960081 170.672835 -28.526666 33.068701 -24.613015 -156.8331 53.303496 -161.657758 -3.184273 10.488771 0.167336 114.76925 -51.040571 56.420207 -166.835921 -27.318832 124.774543 36.256896 -58.224444 -1.234629 -155.734923 -8.77253 113.405757 -36.619419 51.595214 29.830746 1.856549 8.550241 1.107011 -96.380672 73.057434 114.143809 2.975348 0.033645 -5.035722 56.42692 85.539632 -16.433084 -26.20716 -38.499629 -25.98622 70.514905 -86.65914 92.147652 -98.75028 33.652188 95.567125 95.048561 42.476799 -74.587248 -32.737403 -50.544789 -23.37057 -1.779891 -2.064682 0.905212 -67.143411 -78.956969 -1.030256 163.258558 -38.042561 -121.893092 55.963498 54.946082 -43.36049 170.411698 -33.313487 -144.344118 57.475887 61.756824 -49.310558 0.35828 0.320208 -0.298234 -8.939301 15.811521 -1.832652 10.07407 -20.846817 9.033761 -16.000133 42.738832 -8.703159 176.120036 75.891204 2.662431 165.209799 9.62352 2.231279 -29.001792 74.855545 -47.500708 93.114221 69.618495 0.755147 -171.266553 75.660231 -5.965918 -147.079727 80.522969 -72.691399 -41.036835 31.111953 -114.203972 -58.026009 10.01708 -146.825946
